{"title":"Occupation 2018 720p BRRip x264 ESub [MW]","magnet":"magnet:?xt=urn:btih:c10aa0a07a498e3fc0f4a7a2bfd09e7e4cd1c2cc&dn=Occupation+2018+720p+BRRip+x264+ESub+%5BMW%5D&tr=udp%3A%2F%2Ftracker.leechers-paradise.org%3A6969&tr=udp%3A%2F%2Fzer0day.ch%3A1337&tr=udp%3A%2F%2Fopen.demonii.com%3A1337&tr=udp%3A%2F%2Ftracker.coppersurfer.tk%3A6969&tr=udp%3A%2F%2Fexodus.desync.com%3A6969","uploader":"MFreaky","categoryP":"video","categoryS":"hd___movies","size":"883543030","seeders":"0","leechers":"0","description":" <a href=\"https://pichub.site/image/EcXWB\" rel=\"nofollow\" target=\"_NEW\">https://pichub.site/image/EcXWB</a> <a href=\"\nhttps://pichub.site/image/EcZ1t\" rel=\"nofollow\" target=\"_NEW\">\nhttps://pichub.site/image/EcZ1t</a> <a href=\"\nhttps://pichub.site/image/Ec3N6\" rel=\"nofollow\" target=\"_NEW\">\nhttps://pichub.site/image/Ec3N6</a> <a href=\"\nhttps://pichub.site/image/Ec9R4\" rel=\"nofollow\" target=\"_NEW\">\nhttps://pichub.site/image/Ec9R4</a> <a href=\"\nhttps://pichub.site/image/EcHBp\" rel=\"nofollow\" target=\"_NEW\">\nhttps://pichub.site/image/EcHBp</a>\r\n\r\nIMDB <a href=\"\nhttps://www.imdb.com/title/tt6774786/\" rel=\"nofollow\" target=\"_NEW\">\nhttps://www.imdb.com/title/tt6774786/</a>\r\n\r\nVideo\r\nFormat                                   : AVC\r\nFormat/Info                              : Advanced Video Codec\r\nFormat profile                           : High@L4.1\r\nFormat settings                          : CABAC / 5 Ref Frames\r\nFormat settings, CABAC                   : Yes\r\nFormat settings, RefFrames               : 5 frames\r\nCodec ID                                 : V_MPEG4/ISO/AVC\r\nDuration                                 : 1 h 59 min\r\nBit rate                                 : 900 kb/s\r\nWidth                                    : 1 280 pixels\r\nHeight                                   : 536 pixels\r\nDisplay aspect ratio                     : 2.40:1\r\nFrame rate mode                          : Constant\r\nFrame rate                               : 23.976 (24000/1001) FPS\r\nColor space                              : YUV\r\nChroma subsampling                       : 4:2:0\r\nBit depth                                : 8 bits\r\nScan type                                : Progressive\r\nBits/(Pixel*Frame)                       : 0.055\r\nStream size                              : 755 MiB (90%)\r\nWriting library                          : x264 core 155 r2901 7d0ff22\r\n\r\nAudio\r\nFormat                                   : AAC\r\nFormat/Info                              : Advanced Audio Codec\r\nFormat profile                           : HE-AAC / LC\r\nFormat settings                          : Explicit\r\nCodec ID                                 : A_AAC-2\r\nDuration                                 : 1 h 59 min\r\nBit rate                                 : 96.0 kb/s\r\nChannel(s)                               : 2 channels\r\nChannel positions                        : Front: L R\r\nSampling rate                            : 48.0 kHz / 24.0 kHz\r\nFrame rate                               : 23.438 FPS (1024 SPF)\r\nCompression mode                         : Lossy\r\nStream size                              : 81.3 MiB (10%)\r\nLanguage                                 : English","last_updated":"2018-09-18T12:02:45.357Z","parsed":{"xt":"urn:btih:c10aa0a07a498e3fc0f4a7a2bfd09e7e4cd1c2cc","dn":"Occupation 2018 720p BRRip x264 ESub [MW]","tr":["udp://exodus.desync.com:6969","udp://open.demonii.com:1337","udp://tracker.coppersurfer.tk:6969","udp://tracker.leechers-paradise.org:6969","udp://zer0day.ch:1337"],"infoHash":"c10aa0a07a498e3fc0f4a7a2bfd09e7e4cd1c2cc","infoHashBuffer":{"type":"Buffer","data":[193,10,160,160,122,73,142,63,192,244,167,162,191,208,158,126,76,209,194,204]},"name":"Occupation 2018 720p BRRip x264 ESub [MW]","announce":["udp://exodus.desync.com:6969","udp://open.demonii.com:1337","udp://tracker.coppersurfer.tk:6969","udp://tracker.leechers-paradise.org:6969","udp://zer0day.ch:1337"],"urlList":[]}}